<?xml version="1.0" encoding="UTF-8" standalone="no"?>
<svg
   xmlns:dc="http://purl.org/dc/elements/1.1/"
   xmlns:cc="http://creativecommons.org/ns#"
   xmlns:rdf="http://www.w3.org/1999/02/22-rdf-syntax-ns#"
   xmlns:svg="http://www.w3.org/2000/svg"
   xmlns="http://www.w3.org/2000/svg"
   viewBox="0 0 832.5 180"
   height="180"
   width="832.5"
   xml:space="preserve"
   version="1.1"
   id="svg3355"><metadata
     id="metadata3361"><rdf:RDF><cc:Work
         rdf:about=""><dc:format>image/svg+xml</dc:format><dc:type
           rdf:resource="http://purl.org/dc/dcmitype/StillImage" /><dc:title></dc:title></cc:Work></rdf:RDF></metadata><defs
     id="defs3359"><clipPath
       id="clipPath3373"
       clipPathUnits="userSpaceOnUse"><path
         id="path3375"
         d="M 0,144 666,144 666,0 0,0 0,144 Z" /></clipPath><clipPath
       id="clipPath3417"
       clipPathUnits="userSpaceOnUse"><path
         id="path3419"
         d="m 31.886,120.965 28.265,0 c 9.581,0 16.698,-3.011 21.152,-8.949 l 0,0 c 4.063,-5.418 4.611,-11.54 4.611,-16.814 l 0,0 0,-12.563 4.84,0 0,-10.639 -35.863,0 0,10.639 4.801,0 -0.002,7.888 c 0,2.572 -2.082,4.657 -4.653,4.664 l 0,0 -41.803,0 C 10.509,88.08 9,80.282 9,72 l 0,0 C 9,37.206 37.206,9 72,9 l 0,0 c 34.794,0 63,28.206 63,63 l 0,0 c 0,34.794 -28.206,63 -63,63 l 0,0 c -15.242,0 -29.218,-5.184 -40.114,-14.035" /></clipPath><linearGradient
       id="linearGradient3425"
       spreadMethod="pad"
       gradientTransform="matrix(0,150.27162,150.27162,0,72,-1.8721646)"
       gradientUnits="userSpaceOnUse"
       y2="0"
       x2="1"
       y1="0"
       x1="0"><stop
         id="stop3427"
         offset="0"
         style="stop-opacity:1;stop-color:#0a6492" /><stop
         id="stop3429"
         offset="1"
         style="stop-opacity:1;stop-color:#00addb" /></linearGradient><clipPath
       id="clipPath3437"
       clipPathUnits="userSpaceOnUse"><path
         id="path3439"
         d="M 0,144 666,144 666,0 0,0 0,144 Z" /></clipPath></defs><g
     transform="matrix(1.25,0,0,-1.25,0,180)"
     id="g3363"><g
       transform="translate(161.9663,45.041)"
       id="g3365"><path
         id="path3367"
         style="fill:#084a77;fill-opacity:1;fill-rule:nonzero;stroke:none"
         d="m 0,0 0,70 9.7,0 0,-30.1 32.5,0 0,30.1 9.7,0 0,-70 -9.7,0 0,31.9 -32.5,0 L 9.7,0 0,0 Z" /></g><g
       id="g3369"><g
         clip-path="url(#clipPath3373)"
         id="g3371"><g
           transform="translate(221.4639,30.4414)"
           id="g3377"><path
             id="path3379"
             style="fill:#084a77;fill-opacity:1;fill-rule:nonzero;stroke:none"
             d="m 0,0 c 3.2,0.534 5.851,1.3 7.95,2.3 2.1,1 3.95,2.434 5.55,4.3 1.601,1.867 3.133,4.367 4.601,7.5 L -1,65.4 9,65.4 22.7,24.699 36.4,65.4 46,65.4 27.601,16.5 C 25.601,11.167 23.533,6.884 21.4,3.649 19.266,0.417 16.733,-2.116 13.8,-3.95 10.866,-5.783 7,-7.2 2.2,-8.2 L 0,0 Z" /></g><g
           transform="translate(291.7637,50.9414)"
           id="g3381"><path
             id="path3383"
             style="fill:#084a77;fill-opacity:1;fill-rule:nonzero;stroke:none"
             d="M 0,0 C 1.8,0 3.782,0.315 5.949,0.949 8.115,1.582 10.1,2.433 11.899,3.5 l 0,34.4 c -2.799,0.8 -5.767,1.2 -8.9,1.2 -5.467,0 -9.55,-1.667 -12.249,-5 -2.7,-3.334 -4.051,-8.4 -4.051,-15.201 C -13.301,12.699 -12.185,8 -9.95,4.8 -7.718,1.6 -4.4,0 0,0 m 21.3,70.3 0,-75.601 -7.601,-0.8 -0.599,3.5 C 7.832,-5.801 2.732,-7.4 -2.2,-7.4 c -6.534,0 -11.651,2.315 -15.351,6.95 -3.699,4.633 -5.55,11.015 -5.55,19.149 0,8.801 2.166,15.617 6.5,20.451 4.333,4.833 10.433,7.25 18.3,7.25 3.8,0 7.2,-0.467 10.2,-1.4 l 0,24.2 9.401,1.1 z" /></g><g
           transform="translate(325.3623,45.041)"
           id="g3385"><path
             id="path3387"
             style="fill:#084a77;fill-opacity:1;fill-rule:nonzero;stroke:none"
             d="M 0,0 0,50.201 7.601,51 8.4,46.4 c 4.4,3.733 9.1,5.6 14.1,5.6 1.533,0 3.065,-0.234 4.6,-0.7 l 0,-7.699 c -1.6,0.399 -3.235,0.6 -4.9,0.6 -4.8,0 -9.067,-1.5 -12.8,-4.5 L 9.4,0 0,0 Z" /></g><g
           transform="translate(379.0615,50.9414)"
           id="g3389"><path
             id="path3391"
             style="fill:#084a77;fill-opacity:1;fill-rule:nonzero;stroke:none"
             d="m 0,0 c 4.665,0 8.05,1.532 10.149,4.6 2.1,3.065 3.151,8.033 3.151,14.9 0,6.866 -1.051,11.833 -3.151,14.9 C 8.05,37.466 4.665,39 0,39 c -4.668,0 -8.051,-1.534 -10.15,-4.6 -2.1,-3.067 -3.151,-8.034 -3.151,-14.9 0,-6.867 1.051,-11.835 3.151,-14.9 C -8.051,1.532 -4.668,0 0,0 m 0,-7.4 c -7.601,0 -13.351,2.283 -17.25,6.849 -3.9,4.567 -5.851,11.25 -5.851,20.051 0,8.8 1.951,15.483 5.851,20.05 3.899,4.566 9.649,6.85 17.25,6.85 7.6,0 13.35,-2.284 17.249,-6.85 C 21.149,34.983 23.1,28.3 23.1,19.5 23.1,10.699 21.149,4.016 17.249,-0.551 13.35,-5.117 7.6,-7.4 0,-7.4" /></g><g
           transform="translate(431.5605,51.8408)"
           id="g3393"><path
             id="path3395"
             style="fill:#084a77;fill-opacity:1;fill-rule:nonzero;stroke:none"
             d="m 0,0 c 1.8,0 3.782,0.315 5.949,0.95 2.166,0.633 4.151,1.483 5.95,2.55 l 0,33.5 c -2.799,0.801 -5.767,1.201 -8.9,1.201 -5.467,0 -9.55,-1.667 -12.249,-5 -2.7,-3.335 -4.051,-8.4 -4.051,-15.201 0,-5.935 1.116,-10.417 3.351,-13.45 C -7.718,1.516 -4.4,0 0,0 m -2.601,-30.399 c -6.266,0 -11.5,1.066 -15.699,3.199 l -1.1,7.7 c 5.333,-2.333 10.666,-3.5 16,-3.5 10.2,0 15.299,4.601 15.299,13.8 l 0,5.801 c -5,-2.668 -9.7,-4 -14.099,-4 -6.534,0 -11.651,2.232 -15.351,6.699 -3.699,4.466 -5.55,10.633 -5.55,18.5 0,8.933 2.266,15.783 6.8,20.551 4.533,4.765 11,7.149 19.401,7.149 2.665,0 5.615,-0.316 8.849,-0.949 C 15.183,43.917 18.3,43.066 21.3,42 l 0,-50 c 0,-7.2 -2.068,-12.732 -6.2,-16.6 -4.135,-3.866 -10.035,-5.799 -17.701,-5.799" /></g><g
           transform="translate(465.1582,45.041)"
           id="g3397"><path
             id="path3399"
             style="fill:#084a77;fill-opacity:1;fill-rule:nonzero;stroke:none"
             d="M 0,0 0,50.201 7.601,51 8.4,46.4 c 4.4,3.733 9.1,5.6 14.1,5.6 1.533,0 3.065,-0.234 4.6,-0.7 l 0,-7.699 c -1.6,0.399 -3.235,0.6 -4.9,0.6 -4.8,0 -9.067,-1.5 -12.8,-4.5 L 9.4,0 0,0 Z" /></g><g
           transform="translate(515.5576,50.8408)"
           id="g3401"><path
             id="path3403"
             style="fill:#084a77;fill-opacity:1;fill-rule:nonzero;stroke:none"
             d="m 0,0 c 1.934,0 4.101,0.333 6.5,1 2.4,0.666 4.533,1.533 6.4,2.601 l 0,12.799 c -3.134,0.8 -6.835,1.201 -11.099,1.201 -4,0 -6.95,-0.75 -8.851,-2.25 -1.899,-1.5 -2.849,-3.75 -2.849,-6.75 C -9.899,2.866 -6.6,0 0,0 m 14.5,-6 -0.6,3.5 C 8.3,-5.7 2.866,-7.3 -2.399,-7.3 c -5.268,0 -9.451,1.417 -12.55,4.25 -3.101,2.833 -4.651,6.651 -4.651,11.45 0,5 1.734,8.883 5.201,11.651 3.465,2.765 8.333,4.15 14.599,4.15 3.666,0 7.901,-0.435 12.7,-1.3 l 0,5.3 c 0,3.665 -1.049,6.4 -3.15,8.2 -2.1,1.8 -5.316,2.7 -9.649,2.7 -5.068,0 -10.601,-1.167 -16.6,-3.5 l 0,7.3 c 2.8,1.133 5.832,2.016 9.1,2.65 3.265,0.633 6.365,0.949 9.299,0.949 6.6,0 11.616,-1.534 15.05,-4.599 3.433,-3.068 5.151,-7.568 5.151,-13.5 L 22.101,-5.2 14.5,-6 Z" /></g><g
           transform="translate(570.6553,89.9414)"
           id="g3405"><path
             id="path3407"
             style="fill:#084a77;fill-opacity:1;fill-rule:nonzero;stroke:none"
             d="m 0,0 c -1.8,0 -3.784,-0.317 -5.949,-0.95 -2.168,-0.634 -4.151,-1.484 -5.95,-2.55 l 0,-34.4 c 2.799,-0.8 5.765,-1.201 8.899,-1.201 5.466,0 9.55,1.666 12.25,5 2.7,3.333 4.05,8.401 4.05,15.201 0,6.2 -1.117,10.9 -3.35,14.1 C 7.716,-1.6 4.4,0 0,0 m -21.3,-67.5 0,72.8 7.601,0.8 0.599,-3.5 c 5.266,3.2 10.366,4.8 15.3,4.8 6.533,0 11.651,-2.317 15.35,-6.95 3.7,-4.634 5.55,-11.017 5.55,-19.15 0,-8.8 -2.167,-15.617 -6.499,-20.45 -4.335,-4.834 -10.435,-7.25 -18.3,-7.25 -3.801,0 -7.2,0.466 -10.2,1.4 l 0,-21.4 -9.401,-1.1 z" /></g><g
           transform="translate(603.0537,45.041)"
           id="g3409"><path
             id="path3411"
             style="fill:#084a77;fill-opacity:1;fill-rule:nonzero;stroke:none"
             d="m 0,0 0,75.101 9.4,1.1 0,-28 c 5.133,2.732 10.165,4.099 15.1,4.099 5.533,0 9.815,-1.449 12.85,-4.349 3.033,-2.901 4.549,-7.018 4.549,-12.35 L 41.899,0 32.5,0 l 0,34.201 C 32.5,41.333 28.966,44.9 21.9,44.9 20.033,44.9 17.95,44.583 15.65,43.951 13.351,43.316 11.266,42.466 9.4,41.4 L 9.4,0 0,0 Z" /></g></g></g><g
       id="g3413"><g
         clip-path="url(#clipPath3417)"
         id="g3415"><g
           id="g3421"><g
             id="g3423"><path
               id="path3431"
               style="fill:url(#linearGradient3425);stroke:none"
               d="m 31.886,120.965 28.265,0 c 9.581,0 16.698,-3.011 21.152,-8.949 l 0,0 c 4.063,-5.418 4.611,-11.54 4.611,-16.814 l 0,0 0,-12.563 4.84,0 0,-10.639 -35.863,0 0,10.639 4.801,0 -0.002,7.888 c 0,2.572 -2.082,4.657 -4.653,4.664 l 0,0 -41.803,0 C 10.509,88.08 9,80.282 9,72 l 0,0 C 9,37.206 37.206,9 72,9 l 0,0 c 34.794,0 63,28.206 63,63 l 0,0 c 0,34.794 -28.206,63 -63,63 l 0,0 c -15.242,0 -29.218,-5.184 -40.114,-14.035" /></g></g></g></g><g
       id="g3433"><g
         clip-path="url(#clipPath3437)"
         id="g3435"><g
           transform="translate(99.1172,18.7886)"
           id="g3441"><path
             id="path3443"
             style="fill:#51c6f2;fill-opacity:1;fill-rule:nonzero;stroke:none"
             d="m 0,0 c -3.677,3.713 -6.734,4.878 -9.43,5.905 -2.042,0.778 -3.806,1.45 -5.89,3.181 -3.588,2.977 -5.052,7.864 -5.052,16.866 l 0,27.259 -4.888,0 0,-27.259 c 0,-10.633 1.975,-16.61 6.817,-20.629 2.708,-2.247 5.133,-3.171 7.272,-3.986 2.556,-0.975 4.764,-1.816 7.698,-4.777 0.346,-0.35 0.699,-0.801 1.05,-1.32 1.515,0.646 2.992,1.36 4.443,2.118 C 1.377,-1.607 0.698,-0.704 0,0" /></g><g
           transform="translate(113.6124,27.6567)"
           id="g3445"><path
             id="path3447"
             style="fill:#00addb;fill-opacity:1;fill-rule:nonzero;stroke:none"
             d="m 0,0 c -4.431,3.991 -9.158,4.92 -13.33,5.74 -4.309,0.847 -8.03,1.579 -11.282,5.401 -2.47,2.904 -3.388,6.061 -3.388,11.647 l 0,21.556 -3.558,-10e-4 -1.331,0 0,-21.555 c 0,-5.679 0.774,-10.372 4.553,-14.814 4.358,-5.123 9.514,-6.136 14.063,-7.031 3.895,-0.766 7.574,-1.489 11.001,-4.576 0.386,-0.347 0.744,-0.736 1.087,-1.146 1.271,1.022 2.5,2.093 3.688,3.209 C 1.031,-1.012 0.535,-0.482 0,0" /></g><g
           transform="translate(66.8995,44.7408)"
           id="g3449"><path
             id="path3451"
             style="fill:#71cce9;fill-opacity:1;fill-rule:nonzero;stroke:none"
             d="m 0,0 c 0,-9.003 -1.463,-13.889 -5.051,-16.867 -2.084,-1.73 -3.848,-2.402 -5.89,-3.18 -2.697,-1.028 -5.753,-2.192 -9.431,-5.905 -0.838,-0.846 -1.646,-1.987 -2.4,-3.29 1.463,-0.723 2.96,-1.385 4.484,-1.995 0.463,0.747 0.932,1.382 1.39,1.845 2.933,2.961 5.141,3.802 7.697,4.777 2.14,0.815 4.564,1.738 7.272,3.986 4.843,4.019 6.818,9.996 6.818,20.629 l 0,27.259 L 0,27.259 0,0 Z" /></g><g
           transform="translate(60.0328,50.4445)"
           id="g3453"><path
             id="path3455"
             style="fill:#a9ddf2;fill-opacity:1;fill-rule:nonzero;stroke:none"
             d="m 0,0 c 0,-5.586 -0.918,-8.743 -3.389,-11.647 -3.251,-3.822 -6.972,-4.554 -11.281,-5.4 -4.172,-0.821 -8.899,-1.75 -13.33,-5.741 -0.808,-0.728 -1.536,-1.553 -2.2,-2.457 1.212,-1.093 2.472,-2.131 3.766,-3.128 0.515,0.73 1.079,1.387 1.706,1.952 3.427,3.088 7.106,3.811 11.001,4.576 4.549,0.895 9.705,1.908 14.062,7.031 3.78,4.442 4.554,9.135 4.554,14.814 l 0,21.556 L 0,21.556 0,0 Z" /></g><g
           transform="translate(90.7539,82.6389)"
           id="g3457"><path
             id="path3459"
             style="fill:#ffffff;fill-opacity:1;fill-rule:nonzero;stroke:none"
             d="m 0,0 -4.84,0 0,12.563 c 0,5.274 -0.548,11.396 -4.611,16.813 -4.454,5.939 -11.571,8.951 -21.153,8.951 l -28.264,0 C -67.121,31.623 -73.592,22.806 -77.52,12.553 l 41.803,0 c 2.571,-0.008 4.653,-2.093 4.653,-4.666 L -31.062,0 l -4.801,0 0,-10.639 35.863,0 L 0,0 Z" /></g></g></g></g></svg>